<?xml version="1.0" standalone="no"?>
<!DOCTYPE svg PUBLIC "-//W3C//DTD SVG 20010904//EN"
 "http://www.w3.org/TR/2001/REC-SVG-20010904/DTD/svg10.dtd">
<svg version="1.0" xmlns="http://www.w3.org/2000/svg"
 width="512.000000pt" height="512.000000pt" viewBox="0 0 512.000000 512.000000"
 preserveAspectRatio="xMidYMid meet">

<g transform="translate(0.000000,512.000000) scale(0.100000,-0.100000)"
fill="#000000" stroke="none">
<path d="M1990 4959 c-90 -40 -134 -104 -149 -216 -29 -203 -62 -543 -57 -576
13 -82 75 -161 151 -193 24 -10 79 -19 138 -22 l97 -5 0 -108 0 -109 -120 0
-120 0 2 -512 3 -513 625 0 625 0 3 513 2 512 -120 0 -120 0 0 108 0 109 99 6
c111 7 160 23 210 70 42 40 81 121 81 169 0 40 -56 544 -66 593 -16 77 -68
140 -144 174 -43 20 -63 21 -570 21 -507 0 -527 -1 -570 -21z m820 -1119 l0
-110 -250 0 -250 0 0 110 0 110 250 0 250 0 0 -110z"/>
<path d="M1688 3714 c-264 -41 -437 -190 -498 -429 -18 -70 -19 -100 -13 -398
6 -335 0 -450 -38 -787 -18 -160 -43 -344 -54 -396 -4 -19 3 -22 73 -32 143
-23 274 -105 388 -243 32 -40 74 -90 93 -111 29 -33 34 -47 37 -100 3 -35 20
-289 39 -564 19 -276 35 -504 35 -508 0 -3 365 -6 810 -6 764 0 810 1 811 18
5 99 21 328 48 682 l31 425 33 54 c43 73 167 198 247 249 75 49 206 102 268
110 33 4 41 8 38 21 -3 9 -16 97 -30 196 -60 432 -76 720 -63 1078 10 256 1
316 -65 448 -85 171 -258 279 -488 305 l-60 7 -2 -1204 -3 -1204 -765 0 -765
0 -3 1203 c-1 661 -5 1202 -10 1201 -4 -1 -46 -7 -94 -15z"/>
<path d="M1937 2563 c-4 -3 -7 -253 -7 -555 l0 -548 630 0 630 0 -2 553 -3
552 -621 3 c-341 1 -624 -1 -627 -5z"/>
<path d="M1035 1527 c-140 -47 -264 -169 -310 -306 -54 -165 -26 -424 69 -626
132 -279 369 -433 699 -452 l107 -6 0 104 c-1 57 -15 300 -33 540 l-33 437
-44 58 c-153 202 -321 295 -455 251z"/>
<path d="M3943 1521 c-79 -29 -146 -68 -213 -125 -74 -63 -150 -162 -150 -197
0 -14 -13 -217 -30 -450 -16 -233 -32 -466 -36 -518 l-6 -94 113 6 c140 7 247
33 359 89 69 34 103 60 181 138 84 84 102 108 148 200 92 187 131 420 97 580
-33 155 -127 280 -262 346 -89 44 -134 50 -201 25z"/>
</g>
</svg>
