<?xml version="1.0" standalone="no"?>
<!DOCTYPE svg PUBLIC "-//W3C//DTD SVG 20010904//EN"
 "http://www.w3.org/TR/2001/REC-SVG-20010904/DTD/svg10.dtd">
<svg version="1.0" xmlns="http://www.w3.org/2000/svg"
 width="1000.000000pt" height="556.000000pt" viewBox="0 0 1000.000000 556.000000"
 preserveAspectRatio="xMidYMid meet">

<g transform="translate(0.000000,556.000000) scale(0.100000,-0.100000)"
fill="#000000" stroke="none">
<path d="M4360 3888 c0 -12 -12 -18 -42 -22 -415 -51 -642 -110 -872 -227
-178 -90 -199 -107 -228 -181 -28 -69 -41 -118 -33 -118 2 0 20 30 39 68 38
74 67 105 138 146 26 15 59 37 73 50 44 41 266 118 446 155 192 40 338 54 549
55 179 1 216 -2 290 -21 205 -52 287 -110 605 -425 199 -198 247 -250 235
-258 -8 -5 -18 -10 -22 -10 -4 0 -94 84 -200 188 -247 240 -409 372 -535 435
-182 92 -501 102 -873 26 -200 -41 -516 -143 -490 -159 10 -6 9 -10 -2 -16
-27 -16 -130 -147 -148 -186 -21 -47 -15 -86 23 -150 45 -77 105 -136 170
-167 70 -34 373 -99 819 -176 145 -25 283 -52 308 -60 25 -8 83 -22 130 -30
47 -9 92 -18 101 -21 33 -9 73 -60 110 -141 41 -87 56 -100 110 -88 24 5 35
18 60 66 l30 60 -32 40 c-17 22 -30 41 -28 42 2 2 51 0 109 -4 58 -4 171 -7
252 -8 159 -1 178 5 178 54 0 20 -67 119 -142 212 -11 14 49 75 91 93 27 11
33 8 90 -33 64 -47 200 -110 223 -102 7 2 364 9 793 15 1058 16 1115 17 1122
24 4 3 -23 6 -58 6 -35 0 -102 7 -149 15 -47 8 -116 15 -155 15 l-70 0 -70 57
c-251 204 -588 443 -715 508 -49 25 -67 40 -32 28 28 -10 2 12 -43 36 -22 12
-45 21 -51 21 -7 0 -32 11 -55 25 l-44 25 50 -5 c37 -3 43 -2 25 4 -25 9 -25
9 5 10 17 0 75 -6 129 -14 55 -8 101 -13 103 -11 5 5 -34 12 -194 36 -70 10
-204 31 -298 45 -413 62 -1107 91 -1580 66 -204 -11 -221 -10 -232 6 -12 15
-13 15 -13 1z m-140 -165 c0 -10 -5 -36 -11 -58 -7 -22 -22 -96 -34 -165 l-22
-125 -33 3 c-19 1 -35 4 -37 6 -7 7 76 320 92 346 11 17 45 12 45 -7z m-73 -8
c-9 -21 -64 -253 -72 -298 l-6 -37 -97 4 c-212 9 -482 30 -482 37 0 4 11 40
25 80 24 71 36 88 65 90 8 0 25 2 38 5 12 2 22 -1 22 -7 0 -7 10 -9 25 -7 13
3 26 1 27 -4 2 -6 78 -9 178 -9 l175 0 22 68 c13 37 25 74 28 81 2 6 16 12 31
12 19 0 25 -4 21 -15z m628 -85 c3 -6 -1 -7 -9 -4 -18 7 -21 14 -7 14 6 0 13
-4 16 -10z m145 -82 c20 -10 60 -42 89 -72 l53 -54 -7 -72 -7 -73 -52 7 c-155
19 -426 47 -606 62 -113 9 -208 20 -212 23 -7 6 14 120 32 177 10 29 38 40 56
21 13 -13 71 -7 84 8 9 10 16 12 25 5 6 -5 79 -11 161 -12 113 -2 148 -6 147
-15 -4 -16 103 -18 112 -3 3 6 17 7 31 4 18 -5 24 -2 24 10 0 9 -3 16 -7 16
-5 0 -19 10 -33 21 -18 15 -11 13 25 -7 28 -15 66 -35 85 -46z m-152 5 c-10
-2 -28 -2 -40 0 -13 2 -5 4 17 4 22 1 32 -1 23 -4z m-1355 -71 c-21 -51 -31
-62 -50 -62 -12 0 -23 3 -23 6 0 8 94 124 97 120 2 -1 -9 -30 -24 -64z m1761
-177 l47 -55 -33 6 c-77 13 -78 13 -78 43 0 26 8 61 14 61 1 0 23 -25 50 -55z
m-290 -141 c33 -3 69 -10 80 -15 18 -8 18 -9 -4 -4 -14 4 -88 9 -165 13 -111
5 -129 8 -85 13 30 3 69 4 85 3 17 -2 57 -6 89 -10z m-118 -44 c129 -26 245
-58 261 -72 27 -22 11 -26 -30 -8 -53 24 -363 80 -439 80 -32 0 -58 4 -58 10
0 17 163 11 266 -10z m-1169 -56 c-3 -3 -12 -4 -19 -1 -8 3 -5 6 6 6 11 1 17
-2 13 -5z m46 -11 c-7 -2 -19 -2 -25 0 -7 3 -2 5 12 5 14 0 19 -2 13 -5z m153
-27 c66 -13 136 -27 158 -30 21 -4 36 -9 33 -12 -5 -5 -319 55 -326 62 -8 8
16 4 135 -20z m257 -53 c-7 -2 -21 -2 -30 0 -10 3 -4 5 12 5 17 0 24 -2 18 -5z
m498 -15 c1 -19 2 -20 6 -5 3 14 11 17 27 13 12 -3 45 -10 73 -16 28 -6 58
-19 65 -28 11 -14 10 -15 -7 -8 -46 19 -104 34 -109 29 -7 -7 155 -64 165 -58
4 3 13 -2 20 -11 11 -14 8 -15 -27 -9 -21 4 -56 13 -77 21 -20 8 -60 14 -88
14 -42 0 -54 4 -74 28 -31 35 -31 52 0 52 19 0 25 -5 26 -22z m-438 5 c-7 -2
-21 -2 -30 0 -10 3 -4 5 12 5 17 0 24 -2 18 -5z m50 -10 c-7 -2 -19 -2 -25 0
-7 3 -2 5 12 5 14 0 19 -2 13 -5z m60 -10 c-7 -2 -19 -2 -25 0 -7 3 -2 5 12 5
14 0 19 -2 13 -5z m50 -10 c-7 -2 -19 -2 -25 0 -7 3 -2 5 12 5 14 0 19 -2 13
-5z m60 -10 c-7 -2 -19 -2 -25 0 -7 3 -2 5 12 5 14 0 19 -2 13 -5z m60 -10
c-7 -2 -19 -2 -25 0 -7 3 -2 5 12 5 14 0 19 -2 13 -5z m60 -10 c-7 -2 -19 -2
-25 0 -7 3 -2 5 12 5 14 0 19 -2 13 -5z m60 -10 c-7 -2 -19 -2 -25 0 -7 3 -2
5 12 5 14 0 19 -2 13 -5z"/>
<path d="M6698 3723 c7 -3 16 -2 19 1 4 3 -2 6 -13 5 -11 0 -14 -3 -6 -6z"/>
<path d="M6771 3705 c3 -2 45 -18 94 -35 200 -70 518 -244 843 -461 102 -68
162 -103 162 -94 0 30 -472 320 -720 444 -167 83 -409 177 -379 146z"/>
<path d="M7880 3095 c0 -2 23 -23 51 -45 46 -36 56 -40 107 -39 50 0 54 2 32
11 -14 6 -58 26 -99 44 -71 33 -91 39 -91 29z"/>
<path d="M2823 2947 c-17 -8 -26 -26 -39 -84 -9 -41 -14 -76 -11 -79 4 -5 97
146 97 158 0 12 -26 15 -47 5z"/>
<path d="M6430 2601 c0 -10 -7 -36 -16 -57 -12 -29 -15 -59 -12 -113 5 -64 12
-87 57 -175 28 -55 80 -141 116 -191 55 -77 70 -91 101 -98 22 -4 57 -26 90
-56 73 -65 141 -96 260 -120 137 -28 396 -61 534 -68 146 -7 193 5 320 88 52
34 112 68 134 75 54 20 192 17 424 -6 342 -35 356 -41 478 -200 48 -62 87
-103 102 -107 52 -13 200 17 226 46 7 9 28 63 46 121 51 165 55 171 204 273
67 46 96 61 118 58 35 -3 36 14 8 125 -22 86 -43 121 -120 204 l-51 55 36 -49
c34 -46 41 -74 17 -69 -6 2 -28 -13 -49 -33 -40 -37 -191 -115 -255 -132 -35
-10 -41 -7 -130 51 -92 61 -94 62 -161 61 -38 -1 -73 -6 -79 -12 -8 -8 -2 -10
23 -6 19 3 48 0 64 -6 28 -11 29 -12 12 -25 -16 -11 -25 -11 -59 1 -22 8 -42
14 -44 14 -2 0 -1 -25 2 -55 6 -47 4 -56 -12 -62 -22 -8 -399 9 -785 37 l-284
21 -135 59 c-284 123 -637 239 -1037 339 -143 36 -143 36 -143 12z m139 -43
c41 1 79 -2 85 -7 6 -5 67 -23 136 -41 225 -57 526 -163 687 -240 84 -41 151
-75 150 -76 -1 -2 -34 1 -72 6 -39 5 -133 16 -210 25 -311 36 -641 93 -840
142 -68 18 -70 19 -79 57 -6 29 -4 52 8 93 16 48 20 53 39 47 12 -4 55 -7 96
-6z m15 -255 c47 -13 71 -28 110 -67 28 -27 60 -55 71 -61 11 -6 21 -17 21
-25 1 -8 2 -20 3 -27 0 -6 26 -39 56 -72 59 -63 76 -70 215 -91 189 -28 266
-43 275 -52 13 -13 -74 -4 -262 27 -201 34 -214 42 -324 197 -77 108 -109 136
-189 166 -67 26 -57 28 24 5z m2891 -19 c-9 -15 -33 -40 -53 -58 -20 -17 -46
-41 -57 -53 -20 -21 -21 -21 -33 -3 -10 17 -5 22 41 49 28 16 65 43 81 60 36
38 44 40 21 5z m-2672 -20 c8 -9 -11 -44 -24 -44 -6 0 -8 9 -4 19 4 14 0 21
-12 24 -12 3 -10 5 8 6 14 0 29 -2 32 -5z m72 -14 c8 -13 -5 -13 -25 0 -13 8
-13 10 2 10 9 0 20 -4 23 -10z m90 -20 c8 -13 -5 -13 -25 0 -13 8 -13 10 2 10
9 0 20 -4 23 -10z m-90 -10 c8 -13 -25 -13 -45 0 -12 8 -9 10 12 10 15 0 30
-4 33 -10z m206 -6 c19 -9 48 -29 64 -45 17 -16 46 -40 66 -53 32 -21 38 -22
62 -9 23 12 27 12 27 0 0 -10 8 -13 25 -9 21 4 25 1 25 -21 0 -24 -3 -25 -35
-20 -23 4 -35 2 -35 -6 0 -6 6 -11 13 -11 6 -1 21 -20 32 -43 16 -30 34 -48
70 -67 46 -23 60 -25 185 -25 128 0 138 1 185 27 28 15 71 44 97 63 27 21 49
31 53 26 9 -16 -124 -109 -179 -126 -65 -20 -246 -20 -312 0 -54 16 -122 74
-173 149 -37 54 -72 82 -111 91 -15 3 -31 13 -34 21 -10 26 -23 14 -30 -28
l-7 -42 -54 54 c-30 30 -55 57 -55 61 0 4 19 5 42 2 36 -5 40 -4 35 10 -8 21
1 21 44 1z m66 10 c-3 -3 -12 -4 -19 -1 -8 3 -5 6 6 6 11 1 17 -2 13 -5z
m-255 -48 c4 -6 8 -19 8 -29 0 -15 -7 -18 -37 -15 -30 2 -38 7 -38 23 0 31 15
46 39 39 12 -4 24 -12 28 -18z m539 -17 c5 -11 7 -19 3 -19 -11 0 -44 32 -44
41 0 14 30 -2 41 -22z m1597 6 c16 -13 55 -56 86 -94 l57 -70 -15 -82 c-8 -45
-25 -101 -37 -126 -12 -24 -19 -46 -17 -49 7 -6 58 110 74 166 l12 45 1 -40
c1 -55 -26 -177 -41 -187 -7 -4 -24 -8 -38 -8 -22 0 -32 14 -80 113 -31 63
-60 111 -67 110 -7 -2 -13 2 -13 7 0 6 5 10 11 10 6 0 8 8 4 19 -3 11 -7 44
-9 73 -2 29 -7 70 -11 90 -6 33 -5 37 17 41 12 2 26 5 30 6 3 0 20 -10 36 -24z
m-202 -97 c9 -18 22 -36 28 -40 6 -4 -38 -5 -99 -2 -60 4 -114 10 -119 15 -6
6 -5 9 3 9 10 0 9 6 -3 25 l-16 25 95 0 94 0 17 -32z m-1802 -3 c22 -19 32
-22 37 -13 6 10 12 8 23 -7 26 -34 20 -48 -14 -30 -39 20 -69 19 -78 -4 -5
-14 -12 -17 -29 -10 -13 5 -23 15 -23 23 0 7 -7 16 -15 20 -22 8 -18 25 8 36
37 15 61 11 91 -15z m376 -1 c0 -8 -4 -12 -10 -9 -5 3 -10 10 -10 16 0 5 5 9
10 9 6 0 10 -7 10 -16z m105 -9 c0 -26 -40 -33 -49 -9 -7 19 10 35 34 31 8 -1
15 -11 15 -22z m-145 -41 c0 -7 8 -18 18 -23 14 -9 15 -10 1 -11 -18 0 -62 43
-53 53 10 9 34 -4 34 -19z m-197 -1 c-7 -2 -19 -2 -25 0 -7 3 -2 5 12 5 14 0
19 -2 13 -5z m274 -23 c6 0 16 7 23 15 15 19 50 20 50 2 0 -8 10 -19 23 -25
18 -9 19 -11 5 -13 -10 -1 -30 -3 -45 -4 -16 -2 -39 -6 -53 -10 -21 -5 -26 -3
-26 12 -1 10 -4 27 -8 38 -7 19 -7 19 7 3 8 -10 19 -18 24 -18z m-204 13 c-7
-2 -19 -2 -25 0 -7 3 -2 5 12 5 14 0 19 -2 13 -5z m1848 -396 c-8 -8 -11 -5
-11 9 0 27 14 41 18 19 2 -9 -1 -22 -7 -28z m99 13 c0 -14 -55 -19 -67 -7 -10
10 -4 13 27 13 22 1 40 -2 40 -6z"/>
<path d="M6495 2530 c3 -5 21 -10 38 -9 27 0 29 2 12 9 -28 12 -57 12 -50 0z"/>
<path d="M6480 2483 c0 -8 300 -66 306 -60 4 3 -282 67 -299 67 -4 0 -7 -3 -7
-7z"/>
<path d="M6834 2452 c3 -6 -2 -16 -11 -23 -14 -12 -12 -15 23 -21 65 -11 87
-10 81 6 -3 8 -1 17 6 19 20 7 4 14 -51 21 -33 4 -51 3 -48 -2z m26 -22 c0 -5
-7 -10 -16 -10 -8 0 -12 5 -9 10 3 6 10 10 16 10 5 0 9 -4 9 -10z m45 -10 c3
-5 2 -10 -4 -10 -5 0 -13 5 -16 10 -3 6 -2 10 4 10 5 0 13 -4 16 -10z"/>
<path d="M6490 2430 c0 -6 7 -10 15 -10 8 0 15 2 15 4 0 2 -7 6 -15 10 -8 3
-15 1 -15 -4z"/>
<path d="M6960 2426 c6 -8 18 -12 25 -10 8 3 20 2 27 -3 9 -5 2 -10 -22 -13
-28 -4 -12 -9 75 -23 61 -10 121 -20 135 -22 22 -4 22 -3 5 5 -11 5 -53 14
-92 20 -40 7 -73 16 -73 21 0 11 -54 39 -76 39 -13 0 -14 -3 -4 -14z"/>
<path d="M6780 2390 c0 -5 5 -10 10 -10 6 0 10 5 10 10 0 6 -4 10 -10 10 -5 0
-10 -4 -10 -10z"/>
<path d="M6815 2380 c3 -5 8 -10 11 -10 2 0 4 5 4 10 0 6 -5 10 -11 10 -5 0
-7 -4 -4 -10z"/>
<path d="M6880 2320 c0 -5 5 -10 11 -10 5 0 7 5 4 10 -3 6 -8 10 -11 10 -2 0
-4 -4 -4 -10z"/>
<path d="M6970 2321 c0 -6 8 -11 18 -11 10 0 22 -4 28 -9 20 -19 115 -31 191
-23 l78 7 -123 5 c-76 3 -126 10 -130 17 -10 16 -62 28 -62 14z"/>
<path d="M7426 2245 c4 -8 14 -15 24 -15 10 0 33 -2 51 -5 l34 -5 -40 19 c-50
24 -76 27 -69 6z"/>
<path d="M9053 2039 c10 -68 4 -79 -45 -79 -16 0 -28 -2 -28 -5 0 -3 14 -24
30 -47 17 -22 30 -38 30 -35 0 4 15 -2 34 -12 l34 -19 6 36 c3 20 6 50 6 65 0
15 7 30 15 33 8 4 15 11 15 17 0 6 -3 8 -6 4 -4 -3 -26 19 -51 49 -24 29 -45
54 -47 54 -2 0 1 -28 7 -61z"/>
<path d="M4081 2579 c-15 -16 -26 -20 -53 -15 l-33 7 30 -14 c17 -8 48 -17 70
-21 22 -4 50 -10 62 -13 21 -5 22 -3 12 26 -18 51 -56 64 -88 30z"/>
<path d="M3956 2543 c-15 -37 20 -61 108 -75 34 -5 77 -11 97 -14 25 -4 39 -1
48 10 8 9 11 19 7 23 -3 4 -62 21 -131 38 -97 24 -126 28 -129 18z"/>
<path d="M9316 2518 c3 -5 10 -6 15 -3 13 9 11 12 -6 12 -8 0 -12 -4 -9 -9z"/>
<path d="M9360 2490 c0 -11 2 -20 4 -20 2 0 6 9 9 20 3 11 1 20 -4 20 -5 0 -9
-9 -9 -20z"/>
<path d="M9387 2479 c-4 -16 -3 -18 9 -8 7 6 11 15 8 20 -8 13 -11 11 -17 -12z"/>
<path d="M9417 2466 c-4 -10 -1 -13 8 -9 8 3 12 9 9 14 -7 12 -11 11 -17 -5z"/>
<path d="M5271 2394 c0 -11 3 -14 6 -6 3 7 2 16 -1 19 -3 4 -6 -2 -5 -13z"/>
<path d="M2779 2375 c-28 -15 -78 -86 -104 -148 -13 -32 -14 -54 -6 -135 5
-53 6 -135 2 -182 -13 -146 10 -334 59 -474 24 -70 66 -146 82 -146 6 0 27
-15 48 -32 55 -49 76 -65 99 -77 33 -18 206 -41 361 -47 230 -9 558 -74 880
-174 155 -49 241 -72 448 -121 90 -21 232 -59 315 -83 84 -24 178 -49 210 -56
77 -16 179 -68 252 -129 260 -217 330 -261 472 -291 97 -21 133 -23 348 -22
132 0 436 0 675 0 239 -1 530 -1 645 -1 262 0 432 20 570 64 33 11 146 35 250
55 318 58 339 66 515 192 58 41 148 96 202 121 l96 46 -34 30 -34 29 33 13
c29 11 135 35 295 67 34 7 65 16 69 19 19 20 -20 14 -163 -21 -294 -74 -646
-146 -662 -136 -10 7 -49 4 -111 -7 -299 -53 -308 -54 -971 -54 -554 -1 -631
-3 -678 -18 -48 -15 -64 -15 -175 -2 -67 8 -125 15 -130 15 -14 0 -27 50 -58
219 -55 301 -113 495 -199 661 -22 42 -54 86 -70 99 -17 12 -30 26 -30 32 0 6
9 1 20 -12 10 -13 19 -21 20 -16 0 7 -21 48 -30 57 -3 3 -24 30 -48 61 -156
205 -368 309 -540 265 -88 -22 -134 -48 -195 -111 -88 -88 -142 -213 -171
-390 -8 -49 -20 -106 -26 -125 -20 -66 -29 -185 -22 -282 6 -80 5 -98 -6 -98
-14 0 -332 80 -652 165 -91 24 -372 96 -625 160 -253 64 -496 127 -540 140
-44 13 -99 28 -121 34 -47 13 -61 37 -88 153 -27 116 -97 312 -150 423 -111
231 -225 325 -327 270z m76 -365 c-3 -5 -2 -10 3 -10 16 0 34 -52 22 -64 -7
-7 -10 -5 -10 6 0 8 -9 27 -20 41 -24 30 -25 37 -4 37 8 0 12 -4 9 -10z m35
-94 c0 -2 -8 -10 -17 -17 -16 -13 -17 -12 -4 4 13 16 21 21 21 13z m-160 -150
c0 -11 -19 -15 -25 -6 -3 5 1 10 9 10 9 0 16 -2 16 -4z m3593 -221 c36 -47 21
-33 -54 50 -35 39 -40 48 -15 25 21 -19 52 -53 69 -75z m-3494 -160 c1 -16
-36 48 -43 75 -4 14 4 5 18 -20 14 -25 25 -49 25 -55z m23 -65 c5 -31 -6 -41
-16 -15 -5 13 1 45 9 45 1 0 5 -13 7 -30z m88 -42 c0 -20 -18 -5 -23 19 -5 26
-4 26 9 8 8 -10 14 -22 14 -27z m3015 -198 c-5 -7 -22 -8 -68 -1 -5 0 -6 5 -3
9 3 4 21 6 40 4 20 -2 34 -8 31 -12z m65 -140 c0 -5 -2 -10 -4 -10 -3 0 -8 5
-11 10 -3 6 -1 10 4 10 6 0 11 -4 11 -10z m-450 -229 c17 -27 65 -81 106 -120
80 -76 85 -93 12 -36 -68 53 -182 205 -154 205 2 0 18 -22 36 -49z m126 -63
l29 -33 -32 29 c-18 17 -33 31 -33 33 0 8 8 1 36 -29z m55 -45 c13 -16 12 -17
-3 -4 -17 13 -22 21 -14 21 2 0 10 -8 17 -17z m286 -68 c24 -36 40 -71 37 -79
-5 -12 -11 -10 -28 12 -37 45 -76 106 -76 119 0 30 28 8 67 -52z m-49 -30 c-3
-3 -9 2 -12 12 -6 14 -5 15 5 6 7 -7 10 -15 7 -18z"/>
<path d="M5233 1820 c0 -25 2 -35 4 -22 2 12 2 32 0 45 -2 12 -4 2 -4 -23z"/>
<path d="M3340 1716 c0 -2 8 -10 18 -17 15 -13 16 -12 3 4 -13 16 -21 21 -21
13z"/>
<path d="M3465 1711 c-60 -7 -72 -32 -28 -54 63 -33 562 -172 900 -252 268
-63 640 -145 655 -145 22 1 -54 38 -111 55 -30 9 -82 18 -115 20 -86 4 -413
85 -395 97 9 6 2 7 -21 3 -27 -5 -32 -4 -20 5 12 9 9 10 -15 5 -16 -4 -26 -3
-22 2 5 4 -29 17 -75 29 -499 128 -520 135 -585 195 -56 52 -58 53 -168 40z
m137 -37 c5 -3 8 -14 8 -25 0 -15 -5 -19 -17 -15 -10 3 -30 8 -45 12 -19 4
-28 13 -28 26 0 18 4 19 37 13 21 -4 41 -9 45 -11z"/>
<path d="M5215 1503 c-4 -109 -8 -211 -8 -226 -2 -28 -4 -29 -52 -12 -18 6
-18 5 -3 -7 9 -7 25 -18 35 -24 15 -9 16 -14 5 -27 -8 -9 -23 -17 -35 -19 -19
-3 -17 -5 11 -15 31 -12 33 -11 43 13 10 28 26 514 17 514 -3 0 -9 -89 -13
-197z"/>
<path d="M9751 1664 c0 -11 3 -14 6 -6 3 7 2 16 -1 19 -3 4 -6 -2 -5 -13z"/>
<path d="M9587 1563 c-268 -89 -808 -171 -1337 -204 l-186 -11 -37 25 c-36 24
-42 25 -279 32 -394 11 -441 -6 -577 -208 -55 -81 -134 -256 -139 -309 -4 -44
-2 -50 29 -81 24 -24 50 -38 85 -45 172 -37 687 -42 774 -8 198 78 354 101
516 76 60 -9 108 -11 171 -4 l88 9 1 90 c0 50 1 95 2 101 1 7 23 15 50 19 71
10 679 133 740 149 l52 14 0 -31 c0 -41 14 -66 24 -42 3 9 10 14 14 11 5 -3
26 -1 46 5 21 6 51 7 68 4 27 -6 30 -10 26 -42 -4 -30 -2 -33 8 -18 9 11 11
36 8 69 -9 87 -22 114 -65 136 -39 20 -48 33 -29 45 6 3 10 21 10 40 0 19 5
37 10 40 6 4 10 18 10 33 -1 15 4 52 9 81 6 30 9 55 8 56 -1 0 -46 -14 -100
-32z m62 -262 c15 -10 8 -16 -34 -25 -24 -5 -26 -4 -12 4 9 6 15 15 12 21 -8
11 15 12 34 0z m-1680 -45 c14 -13 21 -29 19 -45 -3 -25 -6 -26 -88 -31 -109
-7 -455 -2 -539 8 -35 4 -66 12 -68 17 -1 6 6 25 18 44 l20 33 308 -3 c289 -4
310 -5 330 -23z m1028 -122 c-3 -3 -12 -4 -19 -1 -8 3 -5 6 6 6 11 1 17 -2 13
-5z m-60 -10 c-3 -3 -12 -4 -19 -1 -8 3 -5 6 6 6 11 1 17 -2 13 -5z m-54 -11
c-7 -2 -19 -2 -25 0 -7 3 -2 5 12 5 14 0 19 -2 13 -5z m-60 -10 c-7 -2 -19 -2
-25 0 -7 3 -2 5 12 5 14 0 19 -2 13 -5z m-60 -10 c-7 -2 -21 -2 -30 0 -10 3
-4 5 12 5 17 0 24 -2 18 -5z m-60 -10 c-7 -2 -21 -2 -30 0 -10 3 -4 5 12 5 17
0 24 -2 18 -5z m-60 -10 c-7 -2 -21 -2 -30 0 -10 3 -4 5 12 5 17 0 24 -2 18
-5z m-70 -10 c-7 -2 -19 -2 -25 0 -7 3 -2 5 12 5 14 0 19 -2 13 -5z m-60 -10
c-7 -2 -19 -2 -25 0 -7 3 -2 5 12 5 14 0 19 -2 13 -5z"/>
<path d="M3621 1545 c15 -14 879 -236 974 -249 22 -4 -72 23 -210 58 -137 35
-363 93 -501 130 -246 65 -272 71 -263 61z"/>
<path d="M4398 1423 c6 -2 18 -2 25 0 6 3 1 5 -13 5 -14 0 -19 -2 -12 -5z"/>
<path d="M4448 1413 c7 -3 16 -2 19 1 4 3 -2 6 -13 5 -11 0 -14 -3 -6 -6z"/>
<path d="M4488 1403 c7 -3 16 -2 19 1 4 3 -2 6 -13 5 -11 0 -14 -3 -6 -6z"/>
<path d="M4528 1393 c7 -3 16 -2 19 1 4 3 -2 6 -13 5 -11 0 -14 -3 -6 -6z"/>
<path d="M4568 1383 c7 -3 16 -2 19 1 4 3 -2 6 -13 5 -11 0 -14 -3 -6 -6z"/>
<path d="M4620 1370 c14 -4 34 -8 45 -8 16 0 15 2 -5 8 -14 4 -34 8 -45 8 -16
0 -15 -2 5 -8z"/>
<path d="M4698 1353 c7 -3 16 -2 19 1 4 3 -2 6 -13 5 -11 0 -14 -3 -6 -6z"/>
<path d="M4738 1343 c7 -3 16 -2 19 1 4 3 -2 6 -13 5 -11 0 -14 -3 -6 -6z"/>
<path d="M4648 1283 c7 -3 16 -2 19 1 4 3 -2 6 -13 5 -11 0 -14 -3 -6 -6z"/>
<path d="M4918 1193 c7 -3 16 -2 19 1 4 3 -2 6 -13 5 -11 0 -14 -3 -6 -6z"/>
<path d="M9292 1064 c-20 -14 -23 -23 -20 -72 3 -51 5 -57 26 -60 38 -6 62 24
62 78 0 67 -24 85 -68 54z m41 -34 c7 -26 -6 -73 -21 -78 -8 -2 -12 12 -12 47
0 37 4 51 14 51 7 0 16 -9 19 -20z"/>
<path d="M9210 979 c0 -52 3 -70 13 -67 7 3 13 29 15 71 2 55 0 67 -13 67 -12
0 -15 -14 -15 -71z"/>
<path d="M9100 959 l0 -71 37 7 c46 8 55 13 48 26 -4 5 -17 6 -31 3 -23 -6
-24 -5 -24 50 0 43 -3 56 -15 56 -12 0 -15 -15 -15 -71z"/>
<path d="M9010 1013 c-35 -12 -53 -78 -34 -127 13 -33 94 -12 94 24 0 27 -26
26 -33 -1 -9 -35 -32 -16 -35 29 -2 33 1 44 14 49 10 4 19 2 22 -5 5 -16 32
-15 32 1 0 28 -27 42 -60 30z"/>
<path d="M9568 1013 c-10 -2 -18 -14 -18 -25 0 -12 1 -19 3 -17 1 2 11 14 21
27 11 12 17 21 15 21 -2 -1 -12 -3 -21 -6z"/>
<path d="M9715 1008 c-11 -7 -51 -23 -89 -38 -38 -14 -71 -31 -74 -38 -4 -13
2 -11 81 22 20 9 37 14 37 11 0 -2 -17 -13 -37 -24 -51 -27 -34 -26 28 0 32
14 55 32 65 50 16 33 16 33 -11 17z"/>
<path d="M8681 774 c0 -11 3 -14 6 -6 3 7 2 16 -1 19 -3 4 -6 -2 -5 -13z"/>
</g>
</svg>
