<?xml version="1.0" standalone="no"?>
<!DOCTYPE svg PUBLIC "-//W3C//DTD SVG 20010904//EN"
 "http://www.w3.org/TR/2001/REC-SVG-20010904/DTD/svg10.dtd">
<svg version="1.0" xmlns="http://www.w3.org/2000/svg"
 width="1950.000000pt" height="990.000000pt" viewBox="0 0 1950.000000 990.000000"
 preserveAspectRatio="xMidYMid meet">

<g transform="translate(0.000000,990.000000) scale(0.100000,-0.100000)"
fill="#000000" stroke="none">
<path d="M5955 9813 c3 -10 11 -40 18 -68 9 -40 12 -45 15 -23 4 34 -16 108
-29 108 -7 0 -8 -8 -4 -17z"/>
<path d="M5995 9655 c8 -50 36 -138 41 -132 5 5 -34 158 -42 166 -3 3 -3 -12
1 -34z"/>
<path d="M6030 9496 c0 -21 11 -46 20 -46 10 0 0 49 -11 56 -5 3 -9 -1 -9 -10z"/>
<path d="M6050 9428 c0 -7 5 -20 10 -28 8 -12 10 -11 10 7 0 12 -4 25 -10 28
-5 3 -10 0 -10 -7z"/>
<path d="M6061 9370 c0 -17 38 -109 38 -96 1 5 -4 27 -11 50 -12 43 -28 70
-27 46z"/>
<path d="M6093 9239 c30 -124 49 -175 40 -109 -3 25 -10 53 -14 62 -5 9 -9 26
-9 37 0 11 -5 23 -11 27 -8 5 -10 0 -6 -17z"/>
<path d="M6138 9069 c-7 -22 39 -264 50 -263 7 1 24 2 39 3 24 1 25 2 11 19
-9 9 -32 70 -52 135 -20 64 -38 117 -41 117 -2 0 -5 -5 -7 -11z"/>
<path d="M5390 8549 c-312 -23 -661 -83 -928 -159 -78 -22 -150 -40 -160 -40
-32 0 -110 -60 -174 -133 -86 -100 -205 -261 -233 -316 -21 -43 -22 -50 -11
-111 7 -36 18 -82 25 -103 10 -29 10 -42 2 -50 -16 -16 -13 -31 3 -18 12 10
20 1 45 -52 44 -91 120 -204 178 -264 111 -114 192 -150 719 -325 279 -93 334
-114 334 -129 0 -11 -3 -19 -7 -19 -34 0 -779 261 -861 301 -157 76 -261 187
-365 389 -42 82 -54 99 -38 58 38 -101 136 -252 213 -329 106 -106 183 -142
598 -284 124 -42 284 -94 355 -117 331 -103 497 -153 705 -214 171 -50 230
-71 245 -88 44 -51 148 -135 193 -156 26 -13 140 -42 255 -65 229 -47 262 -61
318 -138 39 -54 72 -117 125 -242 51 -121 77 -145 162 -145 49 0 58 3 86 33
44 48 116 191 116 233 0 27 -11 45 -49 88 -48 52 -76 94 -69 101 2 2 46 -5 98
-15 136 -27 324 -53 346 -48 10 2 -21 10 -71 17 -49 8 -84 16 -77 18 18 7 15
23 -5 23 -9 0 -14 3 -11 6 6 5 179 -9 275 -22 39 -6 41 -7 32 -30 -5 -14 -8
-28 -7 -32 1 -4 -1 -14 -4 -22 -3 -8 -11 -35 -18 -60 -6 -25 -35 -88 -63 -140
-94 -175 -117 -225 -142 -303 -30 -93 -65 -284 -64 -341 1 -33 3 -28 10 24 35
259 83 403 208 615 23 39 53 108 67 155 42 141 25 128 150 114 92 -10 111 -15
126 -34 26 -33 32 -19 7 16 l-21 29 26 -28 c16 -17 23 -33 19 -44 -5 -14 0
-15 36 -10 52 7 88 38 97 82 9 48 -26 125 -140 309 -54 88 -101 169 -104 180
-18 67 -453 740 -654 1011 -418 563 -715 756 -1251 815 -141 15 -500 20 -647
9z m-1274 -438 c-4 -5 0 -12 6 -14 7 -3 2 -6 -11 -6 -20 -1 -21 1 -11 14 14
16 25 21 16 6z m241 -21 c-3 -11 -2 -22 2 -24 11 -7 94 -20 124 -19 15 0 27
-3 27 -7 0 -5 9 -6 19 -3 10 3 28 0 39 -6 14 -7 23 -8 27 -1 6 10 53 8 71 -3
6 -3 35 -9 65 -12 30 -3 72 -11 94 -16 22 -6 65 -15 95 -20 30 -5 93 -19 140
-30 114 -28 190 -38 190 -26 0 6 2 8 5 5 7 -6 -25 -160 -36 -172 -4 -4 -88 15
-186 44 -220 64 -697 211 -702 216 -5 5 20 94 26 94 3 0 3 -9 0 -20z m1283
-294 c19 -2 54 -9 78 -15 24 -7 60 -14 80 -17 20 -2 38 -8 40 -12 1 -5 15 -7
30 -5 15 3 47 -1 72 -7 25 -6 65 -16 89 -21 25 -5 47 -12 50 -17 4 -4 15 -8
26 -10 58 -10 81 -16 86 -23 3 -5 36 -18 75 -28 156 -43 549 -157 786 -229 86
-26 98 -28 102 -13 2 9 2 -24 -1 -74 -3 -49 -7 -92 -9 -94 -4 -5 -141 30 -834
215 -499 134 -740 200 -746 207 -2 2 4 40 13 85 9 45 20 77 23 72 3 -5 21 -11
40 -14z m-1711 -63 c10 -35 15 -63 10 -63 -10 0 -39 95 -38 124 1 25 2 21 28
-61z m1418 -45 c-3 -8 -6 -5 -6 6 -1 11 2 17 5 13 3 -3 4 -12 1 -19z m160 -30
c-3 -8 -6 -5 -6 6 -1 11 2 17 5 13 3 -3 4 -12 1 -19z m-1507 -84 c21 -44 64
-118 94 -166 31 -49 54 -88 51 -88 -3 0 -32 36 -64 80 -65 87 -145 236 -135
252 8 13 9 11 54 -78z m251 -267 c41 -40 85 -81 99 -90 14 -10 5 -8 -19 5 -53
27 -161 124 -161 144 0 8 1 14 3 14 2 0 37 -33 78 -73z m3062 19 c3 -8 24 -20
47 -26 23 -6 48 -14 57 -17 13 -5 13 -2 -2 20 -9 15 -15 27 -13 27 3 0 38 -48
78 -106 49 -72 67 -104 54 -100 -11 3 -70 19 -133 35 -62 17 -115 32 -118 35
-2 2 -1 36 3 75 6 68 16 87 27 57z m-2853 -171 c14 -8 21 -14 15 -14 -5 0 -21
6 -35 14 -14 8 -20 14 -15 14 6 0 21 -6 35 -14z m105 -41 c24 -11 25 -13 5 -8
-14 4 -38 13 -55 20 -24 11 -25 13 -5 8 14 -4 39 -13 55 -20z m2355 -82 c149
-49 274 -134 306 -209 30 -70 10 -192 -56 -329 -47 -97 -37 -94 -273 -94 -215
0 -342 15 -387 46 -33 22 -120 44 -385 96 -27 5 -55 14 -61 19 -6 5 -13 7 -16
4 -9 -10 -66 110 -77 163 -16 76 -14 177 4 212 21 41 75 65 195 90 149 30 261
39 470 36 176 -3 190 -5 280 -34z m-1904 -66 c38 -14 64 -25 58 -25 -5 -1 -41
10 -80 23 -38 14 -64 25 -58 25 5 1 41 -10 80 -23z m195 -89 c-10 -9 -11 -8
-5 6 3 10 9 15 12 12 3 -3 0 -11 -7 -18z m172 -67 c89 -27 263 -79 386 -115
124 -36 226 -66 227 -68 1 -1 4 -12 8 -23 7 -22 5 -22 -96 8 -228 65 -674 201
-690 209 -19 10 -25 39 -8 39 6 0 84 -22 173 -50z m172 -10 c13 -5 14 -9 5 -9
-8 0 -24 4 -35 9 -13 5 -14 9 -5 9 8 0 24 -4 35 -9z m82 -26 c-3 -3 -12 -4
-19 -1 -8 3 -5 6 6 6 11 1 17 -2 13 -5z m88 -24 c13 -5 14 -9 5 -9 -8 0 -24 4
-35 9 -13 5 -14 9 -5 9 8 0 24 -4 35 -9z m70 -20 c13 -5 14 -9 5 -9 -8 0 -24
4 -35 9 -13 5 -14 9 -5 9 8 0 24 -4 35 -9z m70 -20 c13 -5 14 -9 5 -9 -8 0
-24 4 -35 9 -13 5 -14 9 -5 9 8 0 24 -4 35 -9z m70 -20 c13 -5 14 -9 5 -9 -8
0 -24 4 -35 9 -13 5 -14 9 -5 9 8 0 24 -4 35 -9z m280 -187 c87 -22 103 -29
76 -31 -70 -7 -241 39 -241 64 0 8 27 2 165 -33z"/>
<path d="M9010 8550 c-410 -8 -484 -11 -890 -36 -442 -27 -1044 -83 -1070 -99
-5 -3 48 -63 118 -133 141 -141 218 -240 587 -752 530 -737 576 -789 805 -903
58 -28 107 -56 108 -60 2 -4 9 -4 15 2 7 5 170 14 362 20 724 24 1218 41 1455
51 455 19 1263 60 1500 76 129 9 267 17 305 20 278 15 866 64 955 79 14 2 57
7 95 10 228 19 459 52 382 54 -22 1 -195 70 -270 107 -29 15 -84 46 -123 70
-50 31 -81 44 -107 44 -32 0 -57 16 -185 118 -427 341 -919 681 -1318 913
-288 166 -628 329 -688 329 -18 0 -94 9 -171 19 -423 59 -1099 85 -1865 71z
m2270 -546 c0 -3 -20 9 -45 26 -25 17 -45 33 -45 36 0 3 20 -9 45 -26 25 -17
45 -33 45 -36z m195 -114 c55 -29 148 -82 208 -117 59 -35 111 -61 116 -58 8
5 69 -22 81 -36 4 -5 32 -17 45 -19 2 -1 24 -12 47 -25 24 -14 54 -30 68 -35
13 -6 79 -44 145 -83 66 -40 125 -74 130 -76 31 -13 284 -185 380 -258 6 -5
46 -35 90 -67 44 -33 81 -63 83 -68 2 -4 10 -8 18 -8 8 0 14 -4 14 -8 0 -9
122 -93 149 -103 10 -4 2 -9 -23 -13 l-38 -7 41 -31 c23 -16 41 -30 41 -31 0
-1 -44 -3 -98 -5 -53 -2 -126 -8 -162 -13 -75 -12 -288 -14 -342 -4 -32 6 -46
19 -102 94 -266 357 -648 746 -983 999 -89 68 -123 103 -52 55 24 -16 89 -54
144 -83z"/>
<path d="M11815 7694 c36 -28 61 -36 30 -10 -16 14 -34 25 -40 25 -5 0 -1 -7
10 -15z"/>
<path d="M3818 8078 c-26 -35 -82 -157 -76 -163 2 -2 27 39 56 92 54 98 63
130 20 71z"/>
<path d="M2952 7024 c-23 -14 -49 -39 -58 -55 -35 -68 -57 -262 -34 -299 11
-17 8 -21 55 65 21 39 62 110 92 159 29 49 53 93 53 98 0 9 -50 57 -60 58 -3
0 -24 -12 -48 -26z"/>
<path d="M3205 6960 c28 -12 37 -12 30 0 -3 6 -16 10 -28 9 -21 0 -21 -1 -2
-9z"/>
<path d="M8670 6518 c0 -73 89 -315 145 -394 65 -92 106 -113 480 -235 187
-62 343 -115 348 -119 10 -8 -21 -94 -69 -195 l-39 -80 1 -160 c1 -152 2 -165
32 -252 50 -147 166 -368 328 -624 24 -38 37 -48 73 -58 49 -13 112 -54 156
-101 53 -58 176 -150 244 -184 179 -91 590 -171 1199 -236 396 -41 477 -26
765 149 89 54 163 90 226 111 87 29 104 32 235 32 359 0 1250 -78 1496 -132
171 -37 270 -93 369 -209 27 -31 78 -90 113 -131 74 -87 113 -110 183 -110 52
1 170 20 243 39 87 24 133 88 226 320 53 134 92 197 153 250 45 40 720 453
761 465 46 15 85 -5 156 -78 68 -71 68 -71 61 -36 -3 19 -18 63 -33 98 -22 51
-31 62 -50 62 -13 0 -20 4 -17 10 4 6 21 8 40 4 26 -5 35 -2 42 13 14 27 17
107 4 99 -6 -4 -11 -13 -11 -20 0 -7 -9 -21 -20 -31 -18 -16 -21 -16 -44 -2
-13 9 -33 29 -45 45 -18 26 -19 31 -6 42 11 9 18 10 29 1 24 -20 41 16 41 88
-1 83 -19 121 -92 187 l-55 50 21 42 c28 54 27 91 -4 133 -13 19 -42 64 -64
100 -37 61 -71 101 -71 84 0 -4 -6 -2 -14 5 -13 10 -13 7 -4 -22 6 -18 19 -51
29 -73 17 -38 18 -39 18 -12 1 15 -6 42 -15 58 -8 17 -13 33 -10 36 2 3 14
-14 26 -38 18 -33 21 -53 17 -91 -3 -26 -1 -62 5 -78 9 -27 7 -34 -13 -56 -12
-13 -25 -24 -29 -24 -3 0 -28 36 -55 80 -26 45 -53 84 -59 88 -6 3 -4 -5 5
-18 9 -14 29 -47 44 -74 l29 -49 -35 -30 c-54 -46 -196 -139 -289 -189 -174
-94 -565 -247 -632 -248 -18 0 -76 33 -170 96 -195 132 -222 144 -329 144 -88
0 -184 -13 -231 -32 -37 -14 -39 -22 -53 -190 -4 -47 -13 -95 -20 -105 -31
-42 -1046 -12 -2110 63 l-220 15 -265 129 c-675 327 -1285 562 -2385 916 -446
144 -515 171 -583 229 -56 48 -121 181 -163 335 -34 125 -39 137 -39 98z
m1520 -998 c453 -151 615 -209 728 -261 35 -16 68 -29 73 -29 5 0 26 -9 46
-20 21 -11 50 -20 65 -20 15 0 31 -7 35 -15 5 -8 35 -21 68 -29 33 -8 53 -15
45 -16 -8 0 12 -12 45 -26 33 -13 66 -22 74 -19 11 4 12 3 1 -10 -11 -13 -9
-15 13 -15 27 0 64 -14 172 -65 117 -56 247 -115 250 -115 11 0 75 -43 71 -48
-3 -3 -14 1 -23 9 -10 7 -7 1 6 -14 29 -32 30 -32 -35 -8 -31 12 -113 26 -210
36 -713 73 -1289 186 -1968 386 l-68 20 4 107 c3 101 6 112 46 198 23 50 42
97 42 104 0 21 52 6 520 -150z m-496 -321 c-2 -4 5 -5 16 -2 11 3 20 0 20 -6
0 -6 8 -8 18 -4 9 3 14 3 10 -2 -7 -8 120 -65 177 -79 15 -4 24 -10 21 -14 -8
-7 4 -11 284 -82 225 -56 485 -110 650 -135 137 -20 156 -27 177 -63 23 -40
52 -59 103 -65 134 -17 150 -20 150 -33 0 -21 62 -154 69 -149 7 4 81 -137 81
-155 0 -6 -17 -10 -37 -10 -55 0 -35 -8 37 -16 36 -3 72 -10 80 -16 12 -8 12
-9 -3 -4 -14 5 -16 2 -8 -12 9 -17 3 -17 -117 -5 -70 7 -158 20 -197 28 -38 9
-104 18 -145 21 -90 6 -352 48 -435 70 -33 9 -85 18 -115 20 -30 3 -60 10 -66
17 -7 6 -54 92 -104 190 -100 193 -99 186 -21 161 8 -3 17 0 21 6 4 7 61 -1
176 -24 202 -41 255 -51 273 -47 7 1 10 -2 7 -8 -4 -5 -2 -13 4 -16 18 -11 61
-85 55 -95 -3 -5 11 -46 32 -92 21 -45 39 -75 41 -66 2 9 -6 35 -18 57 -11 23
-18 41 -16 41 3 0 22 -34 44 -75 41 -78 41 -82 -2 -65 -14 5 -26 6 -26 1 0
-10 36 -24 98 -38 38 -9 42 -9 37 6 -3 9 7 3 24 -13 17 -16 33 -27 36 -24 3 3
-13 22 -35 42 -22 20 -38 36 -36 36 2 0 -8 12 -21 28 -28 30 -146 243 -139
250 3 2 19 -17 37 -42 29 -40 59 -60 59 -38 0 19 -41 71 -61 77 -17 6 -19 9
-8 16 11 7 9 9 -7 9 -19 0 -589 110 -646 125 -21 5 -28 3 -28 -6 0 -8 49 -104
108 -214 l107 -200 55 -26 c65 -31 428 -105 700 -143 336 -46 632 -60 750 -35
30 6 82 23 115 38 48 21 72 26 118 23 31 -2 57 -8 57 -13 0 -5 -4 -9 -9 -9 -5
0 -12 -7 -15 -16 -5 -13 -2 -15 11 -9 10 4 31 9 46 10 15 2 34 9 43 15 8 7 16
11 19 9 2 -2 -12 -15 -32 -27 -19 -13 -32 -18 -28 -10 4 7 -3 2 -15 -12 -12
-14 -19 -19 -15 -12 6 11 3 12 -14 3 -11 -7 -21 -14 -21 -17 0 -3 5 -2 12 2 7
4 8 3 4 -4 -4 -6 -14 -8 -23 -5 -11 4 -14 3 -9 -5 5 -8 1 -10 -10 -5 -13 5
-15 3 -9 -7 5 -8 4 -11 -2 -7 -6 4 -37 -2 -69 -14 -101 -34 -209 -48 -354 -44
-74 2 -157 6 -185 10 -27 3 -104 13 -170 21 -337 41 -697 106 -1025 185 -96
23 -185 44 -198 47 -58 12 -285 385 -346 570 -35 104 -34 116 4 108 70 -14 92
-15 45 -1 -54 16 -95 13 -95 -9 0 -15 38 -134 50 -156 7 -12 -12 -9 -81 14
l-89 31 -19 50 c-21 53 -45 132 -55 176 l-6 26 54 -16 c30 -8 52 -19 50 -22z
m6678 -56 c45 -63 58 -96 57 -141 0 -20 -3 -31 -6 -24 -2 6 -10 12 -17 12 -16
0 -68 72 -90 123 -12 31 -13 42 -3 58 6 10 15 19 19 19 3 0 22 -21 40 -47z
m-262 -18 c-12 -27 -51 -77 -86 -113 -35 -36 -65 -71 -67 -76 -2 -6 -13 13
-24 43 l-20 55 106 71 c58 39 107 70 109 69 2 -1 -6 -23 -18 -49z m359 -110
c1 -5 -6 -2 -15 7 -10 9 -13 21 -8 29 5 9 9 8 15 -7 4 -10 8 -23 8 -29z m-175
-10 c14 -38 -314 -237 -554 -335 -30 -12 -65 -34 -77 -47 -13 -13 -23 -20 -23
-14 0 18 52 71 89 92 20 11 27 17 16 14 -35 -11 -12 2 160 89 94 47 215 115
270 150 55 35 103 64 106 65 4 1 9 -6 13 -14z m-1475 -15 c10 0 25 -6 34 -12
14 -11 -3 -13 -95 -10 -142 3 -189 13 -103 23 33 4 80 5 104 3 24 -2 51 -4 60
-4z m1585 -49 c-9 -10 -26 18 -18 30 5 9 9 8 14 -7 4 -10 6 -21 4 -23z m-4379
-153 c7 -7 1 -8 -15 -3 -25 7 -130 73 -130 82 0 6 131 -66 145 -79z m2855 52
c0 -5 6 -7 13 -4 8 3 44 -29 87 -78 72 -81 260 -314 260 -322 0 -2 -13 -6 -29
-9 -26 -6 -30 -12 -46 -79 -27 -111 -85 -252 -99 -238 -8 8 -8 13 0 18 13 9
35 86 36 132 1 19 -2 54 -7 78 -7 38 -6 42 13 42 21 0 52 34 52 56 0 16 -136
160 -203 216 -28 24 -48 38 -44 31 4 -6 8 -76 10 -155 l2 -143 -55 -5 c-30 -2
-75 -4 -100 -4 l-45 -1 -2 85 c-1 51 1 77 6 65 6 -15 10 -5 15 40 5 39 17 73
33 97 28 41 27 76 -2 132 -21 39 -19 44 13 49 53 8 92 7 92 -3z m-3391 -230
c26 -43 48 -70 59 -70 10 0 29 -22 47 -55 16 -31 44 -70 62 -87 31 -30 38 -32
133 -38 54 -3 102 -9 106 -13 16 -16 -12 -22 -96 -21 -107 1 -150 20 -199 84
-19 25 -38 44 -44 42 -5 -2 -7 4 -4 11 3 8 -10 38 -29 66 -40 59 -94 150 -94
157 0 15 22 -13 59 -76z m111 70 c0 -5 -7 -7 -15 -4 -20 8 -19 -5 2 -28 15
-17 15 -18 0 -18 -10 0 -17 -6 -17 -12 -1 -11 -40 58 -40 69 0 2 16 3 35 3 19
0 35 -4 35 -10z m-700 -40 c6 -11 8 -20 6 -20 -3 0 -10 9 -16 20 -6 11 -8 20
-6 20 3 0 10 -9 16 -20z m4186 -128 c58 -66 70 -92 43 -92 -5 0 -9 8 -9 18 0
9 -44 64 -98 122 -71 76 -84 94 -48 65 27 -22 77 -72 112 -113z m247 89 c52
-23 59 -31 23 -31 -15 0 -41 17 -68 43 -24 23 -35 34 -24 25 12 -9 42 -26 69
-37z m277 14 c-14 -8 -32 -14 -40 -14 -8 0 -1 6 15 14 40 18 57 18 25 0z m-70
-25 c-8 -5 -19 -10 -25 -10 -5 0 -3 5 5 10 8 5 20 10 25 10 6 0 3 -5 -5 -10z
m-2170 -54 c693 -35 835 -47 862 -74 6 -6 -23 -8 -79 -6 -48 2 -209 9 -358 14
-318 12 -779 36 -989 51 -127 8 -153 13 -175 31 l-26 21 130 -6 c72 -4 357
-18 635 -31z m-723 -22 c-3 -3 -12 -4 -19 -1 -8 3 -5 6 6 6 11 1 17 -2 13 -5z
m2053 -6 c0 -22 -14 -35 -45 -42 l-30 -6 35 30 c40 34 40 34 40 18z m-312 -65
c-21 -2 -55 -2 -75 0 -21 2 -4 4 37 4 41 0 58 -2 38 -4z m75 0 c-7 -2 -19 -2
-25 0 -7 3 -2 5 12 5 14 0 19 -2 13 -5z m285 -92 c15 -10 39 -21 53 -24 15 -4
70 -52 130 -114 57 -60 107 -107 111 -106 20 7 17 -49 -6 -110 -14 -37 -23
-67 -21 -67 2 0 24 38 50 85 l46 85 32 -30 32 -30 12 27 c7 16 12 24 13 18 0
-11 -50 -167 -56 -174 -7 -7 -158 -29 -167 -24 -4 2 -47 84 -97 181 -130 256
-146 282 -175 282 -13 0 -27 5 -30 10 -11 17 46 11 73 -9z"/>
<path d="M9800 5571 c-17 -33 -13 -50 12 -43 14 3 19 2 14 -6 -4 -7 -5 -12 -2
-12 3 0 12 13 21 30 14 27 14 30 -4 40 -26 14 -29 13 -41 -9z"/>
<path d="M9885 5578 c11 -6 22 -14 25 -17 3 -4 106 -40 230 -80 223 -72 268
-90 199 -77 -91 16 -30 -12 169 -79 312 -105 698 -248 717 -266 5 -5 6 -9 3
-9 -4 0 -33 -7 -65 -15 -43 -11 -74 -13 -118 -6 -46 7 -52 9 -25 10 72 4 -11
23 -110 26 -52 1 -104 3 -115 5 l-20 1 20 10 c14 6 7 8 -25 4 -34 -4 -40 -3
-25 5 15 8 8 9 -30 6 -31 -3 -41 -2 -25 3 24 7 24 7 -10 15 -19 5 -43 10 -54
12 -10 3 -51 11 -90 19 -111 23 -102 16 19 -16 61 -16 92 -26 70 -23 -22 3
-75 14 -117 24 -125 31 -169 34 -212 16 -38 -16 -43 -15 -214 29 -255 67 -253
66 -267 159 -4 27 -11 43 -15 36 -5 -9 -9 -9 -14 -1 -13 20 -26 11 -26 -16 0
-45 11 -73 29 -73 9 0 27 -13 41 -29 22 -26 48 -36 210 -79 102 -28 210 -53
240 -57 30 -4 66 -13 80 -20 46 -23 545 -120 775 -150 273 -35 547 -66 552
-61 2 2 -12 12 -31 21 -20 10 -39 21 -42 26 -8 14 2 11 41 -12 20 -12 38 -19
41 -16 3 2 -36 26 -86 52 -51 25 -94 44 -97 42 -2 -3 5 -8 16 -12 12 -3 21
-11 21 -17 0 -11 -24 4 -50 32 -8 9 -28 22 -44 29 -27 11 -28 11 -16 -4 8 -10
-15 -2 -56 18 -38 19 -91 43 -117 53 -26 9 -50 21 -53 25 -3 5 -12 9 -19 9 -8
0 -43 13 -77 29 -35 15 -74 32 -88 36 -14 4 -44 18 -67 31 -23 13 -53 24 -68
24 -15 0 -24 4 -20 10 3 6 -2 11 -12 11 -48 4 -64 7 -75 16 -19 15 -373 138
-652 227 -228 73 -297 90 -251 64z m1028 -525 c-7 -2 -19 -2 -25 0 -7 3 -2 5
12 5 14 0 19 -2 13 -5z m60 -10 c-7 -2 -21 -2 -30 0 -10 3 -4 5 12 5 17 0 24
-2 18 -5z m512 -43 c3 -6 -1 -7 -9 -4 -18 7 -21 14 -7 14 6 0 13 -4 16 -10z"/>
<path d="M10096 5420 c6 -6 56 -30 113 -54 82 -35 107 -51 131 -82 16 -22 30
-45 30 -53 0 -8 6 -11 16 -7 8 3 13 2 10 -3 -3 -4 3 -16 14 -26 13 -12 20 -14
20 -6 0 8 5 7 16 -3 18 -18 41 -21 46 -5 2 6 14 1 27 -10 14 -12 40 -22 60
-22 60 -3 66 -4 78 -12 34 -22 194 -47 298 -46 l110 1 -55 25 c-153 70 -712
257 -742 247 -15 -4 -18 -3 -13 7 6 9 2 11 -13 7 -12 -4 -20 -2 -16 3 3 5 -4
9 -15 9 -11 0 -44 9 -73 21 -29 11 -48 15 -42 9z m204 -70 c0 -5 -7 -7 -15 -4
-8 4 -15 8 -15 10 0 2 7 4 15 4 8 0 15 -4 15 -10z m100 -60 c0 -5 -2 -10 -4
-10 -3 0 -8 5 -11 10 -3 6 -1 10 4 10 6 0 11 -4 11 -10z m117 -94 c4 -5 -4 -2
-18 7 -31 22 -45 22 -28 0 13 -17 12 -17 -13 0 -16 10 -28 13 -28 7 0 -5 -5
-10 -11 -10 -6 0 -8 9 -4 20 4 12 2 20 -5 20 -7 0 -6 5 2 14 11 11 20 9 56
-17 24 -18 46 -36 49 -41z m-12 44 c3 -6 -1 -7 -9 -4 -18 7 -21 14 -7 14 6 0
13 -4 16 -10z m45 0 c0 -5 -2 -10 -4 -10 -3 0 -8 5 -11 10 -3 6 -1 10 4 10 6
0 11 -4 11 -10z m0 -35 c7 -8 9 -15 5 -15 -4 0 -1 -7 6 -17 13 -15 12 -15 -11
-3 -16 8 -20 15 -12 18 10 3 8 8 -5 18 -10 7 -13 14 -7 14 6 0 17 -7 24 -15z
m47 -12 c-4 -3 -1 -13 6 -21 10 -13 9 -14 -12 -3 -19 10 -21 15 -10 22 17 10
25 12 16 2z"/>
<path d="M10433 5233 c9 -9 20 -13 24 -9 4 4 1 11 -7 16 -25 16 -35 11 -17 -7z"/>
<path d="M10828 5073 c6 -2 18 -2 25 0 6 3 1 5 -13 5 -14 0 -19 -2 -12 -5z"/>
<path d="M11740 4870 c46 -25 64 -25 22 0 -18 11 -38 20 -45 20 -6 -1 4 -9 23
-20z"/>
<path d="M10150 4901 c0 -6 4 -13 10 -16 6 -3 7 1 4 9 -7 18 -14 21 -14 7z"/>
<path d="M10197 4899 c7 -7 15 -10 18 -7 3 3 -2 9 -12 12 -14 6 -15 5 -6 -5z"/>
<path d="M10527 4509 c12 -12 25 -20 28 -17 3 3 -7 13 -22 23 l-28 17 22 -23z"/>
<path d="M11126 4465 c4 -8 11 -15 16 -15 6 0 5 6 -2 15 -7 8 -14 15 -16 15
-2 0 -1 -7 2 -15z"/>
<path d="M12658 4553 c7 -3 16 -2 19 1 4 3 -2 6 -13 5 -11 0 -14 -3 -6 -6z"/>
<path d="M12778 4543 c7 -3 16 -2 19 1 4 3 -2 6 -13 5 -11 0 -14 -3 -6 -6z"/>
<path d="M3019 6367 c17 -21 22 -21 47 -1 19 15 19 15 -1 5 -13 -6 -26 -6 -40
1 -18 10 -19 10 -6 -5z"/>
<path d="M7653 6183 c9 -2 23 -2 30 0 6 3 -1 5 -18 5 -16 0 -22 -2 -12 -5z"/>
<path d="M15560 5996 c0 -2 8 -10 18 -17 15 -13 16 -12 3 4 -13 16 -21 21 -21
13z"/>
<path d="M5260 5956 c0 -17 139 -66 189 -66 26 0 32 3 27 16 -3 9 -6 19 -6 22
0 4 -4 1 -9 -6 -8 -13 -7 -14 -106 24 -11 4 -26 8 -34 10 -8 1 -25 5 -38 9
-16 4 -23 1 -23 -9z"/>
<path d="M5126 5913 c-3 -3 -3 -10 0 -14 7 -12 34 -11 34 0 0 11 -26 22 -34
14z"/>
<path d="M15689 5877 c14 -15 29 -27 35 -27 5 0 37 -21 70 -47 34 -26 50 -35
37 -20 -13 14 -42 38 -65 53 -22 15 -54 36 -71 47 l-30 20 24 -26z"/>
<path d="M5120 5848 c17 -19 112 -58 138 -57 9 0 -14 11 -52 24 -37 14 -76 30
-85 37 -14 11 -14 10 -1 -4z"/>
<path d="M2874 5811 c-49 -22 -94 -74 -156 -177 -60 -102 -82 -170 -74 -226 4
-24 11 -95 15 -158 5 -63 14 -142 20 -175 6 -33 9 -89 6 -125 -2 -36 -7 -110
-10 -165 -12 -198 23 -529 80 -754 28 -112 78 -257 107 -314 11 -22 17 -45 14
-53 -3 -8 -2 -13 2 -10 4 2 15 -10 25 -27 l17 -32 -19 23 c-18 21 -20 21 -29
5 -6 -10 -6 -26 -2 -39 5 -12 6 -24 3 -28 -9 -8 43 -89 67 -106 13 -8 28 -20
34 -25 12 -12 58 -31 161 -70 39 -14 91 -35 117 -46 26 -10 53 -19 60 -19 7 0
24 -6 38 -13 14 -7 86 -32 160 -56 197 -63 314 -103 325 -111 10 -6 100 -42
120 -47 28 -6 249 -96 326 -132 25 -11 53 -21 62 -21 9 0 19 -4 22 -10 3 -5
17 -10 31 -10 13 0 24 -5 24 -12 0 -6 3 -9 6 -5 3 3 25 -5 49 -19 24 -13 53
-24 64 -24 12 0 21 -5 21 -11 0 -5 5 -7 10 -4 6 4 25 -2 43 -13 17 -11 43 -23
57 -27 14 -4 43 -16 65 -25 22 -10 83 -35 135 -55 124 -48 163 -67 172 -79 4
-6 8 -8 8 -4 0 6 36 -6 100 -34 84 -37 114 -48 135 -53 6 -2 45 -19 88 -39 43
-20 85 -36 92 -36 8 0 16 -4 19 -9 3 -5 18 -12 33 -16 30 -7 82 -28 123 -50
14 -7 50 -22 80 -33 30 -11 116 -46 190 -77 74 -31 151 -62 171 -70 20 -7 50
-20 67 -29 17 -9 39 -18 49 -20 10 -1 35 -10 55 -20 21 -9 41 -16 44 -16 4 0
39 -14 78 -31 120 -53 134 -59 143 -59 5 0 72 -29 148 -65 77 -36 148 -65 157
-65 10 0 18 -5 18 -11 0 -5 5 -7 10 -4 6 3 16 3 23 -2 6 -4 17 -8 22 -9 6 -1
64 -19 130 -40 66 -21 122 -38 125 -39 3 0 19 -6 35 -12 17 -7 82 -32 145 -57
63 -24 142 -57 175 -72 33 -15 65 -29 70 -30 24 -6 285 -124 335 -152 30 -16
66 -33 80 -37 14 -4 37 -16 52 -27 16 -11 32 -16 38 -13 5 3 10 2 10 -4 0 -5
14 -12 30 -16 17 -4 30 -10 30 -14 0 -4 17 -13 38 -20 20 -8 67 -28 104 -46
36 -18 77 -36 90 -40 13 -4 60 -25 104 -46 85 -41 127 -53 62 -18 -62 32 -43
30 30 -3 75 -35 89 -44 52 -34 -21 6 -22 5 -7 -4 10 -7 25 -9 34 -6 8 4 21 0
27 -7 6 -7 45 -26 86 -42 41 -15 113 -43 160 -61 177 -67 217 -81 275 -99 33
-10 65 -21 70 -25 6 -4 26 -11 45 -15 19 -4 40 -11 46 -16 6 -5 19 -10 30 -12
31 -6 78 -18 94 -24 18 -8 15 -7 70 -22 25 -7 56 -15 70 -18 14 -2 46 -11 71
-19 25 -8 50 -14 55 -13 5 1 16 0 24 -4 12 -4 78 -16 125 -21 6 -1 36 -8 68
-15 32 -7 61 -11 63 -8 3 3 22 1 42 -5 20 -5 60 -11 87 -13 28 -3 61 -7 75
-11 14 -3 39 -8 55 -9 17 -2 48 -5 70 -8 40 -6 94 -10 275 -23 52 -4 115 -8
140 -10 219 -16 919 -22 1105 -10 55 4 132 8 171 10 39 1 76 6 82 10 7 4 12 2
12 -4 0 -6 4 -9 8 -6 9 5 95 14 207 21 33 2 85 6 115 9 30 4 78 9 105 12 28 3
57 7 65 9 8 2 49 7 90 10 41 3 82 8 90 10 8 2 40 7 70 11 30 3 66 8 80 11 14
3 41 6 60 8 73 8 229 33 237 38 4 3 36 8 70 11 33 3 72 10 85 15 14 5 47 12
75 15 27 3 56 8 64 10 8 3 30 7 49 10 19 3 46 8 60 11 14 2 39 7 55 10 28 6
115 24 210 45 22 5 76 16 120 26 44 9 150 34 235 56 85 21 171 41 190 44 19 2
55 11 80 19 39 12 93 27 240 66 19 5 49 11 67 14 18 3 51 12 75 20 24 9 75 25
113 35 168 46 200 55 203 63 2 4 10 7 18 7 9 0 39 7 67 16 145 46 264 86 291
98 45 20 69 29 91 33 10 2 22 7 25 11 3 4 24 14 48 20 36 11 117 52 182 92 8
6 32 19 53 30 20 11 37 25 37 30 0 5 9 12 20 15 11 4 46 33 78 65 74 77 79 83
74 98 -2 6 3 15 12 18 9 3 16 14 16 24 0 11 4 21 9 24 5 3 7 45 5 93 -5 109
-7 123 -15 123 -7 0 -22 40 -20 53 1 4 -4 14 -11 21 -7 8 -20 24 -28 36 -20
31 -71 80 -82 80 -5 0 -23 13 -40 29 -17 16 -36 28 -42 26 -22 -7 -100 -16
-96 -11 3 2 86 23 185 45 195 45 360 93 415 121 50 26 97 78 114 127 l15 42
-42 -30 c-44 -31 -127 -54 -447 -123 -226 -49 -240 -53 -240 -75 0 -10 -6 -23
-13 -29 -26 -22 -608 -158 -1077 -252 -422 -84 -904 -170 -911 -162 -9 10 8
583 18 593 4 4 134 28 288 54 567 94 1225 219 1563 298 78 19 144 31 147 28 3
-3 3 -83 -1 -177 l-7 -172 44 13 c24 8 127 39 229 70 102 31 204 65 226 76 52
25 113 83 128 123 16 40 9 236 -8 236 -6 0 -29 46 -50 103 -83 220 -156 346
-213 368 -17 6 -67 -2 -176 -27 -601 -139 -1302 -263 -2037 -359 -190 -25
-400 -54 -468 -65 -255 -41 -351 -102 -717 -460 -237 -232 -321 -307 -370
-333 -38 -21 -52 -22 -280 -21 -323 2 -968 57 -1412 119 -59 8 -110 15 -114
15 -13 0 -31 -60 -25 -84 3 -13 38 -54 77 -90 63 -58 81 -69 153 -91 48 -15
163 -34 286 -49 506 -61 742 -77 1250 -83 498 -6 522 -4 1040 68 380 52 401
54 408 42 4 -6 6 -45 4 -87 -4 -76 -4 -76 -31 -76 -40 0 -228 -33 -511 -90
-135 -27 -280 -54 -322 -59 -378 -51 -1315 -37 -2048 30 -411 37 -1033 113
-1101 134 -26 8 -33 36 -114 395 -41 184 -87 378 -101 430 -50 186 -147 475
-211 629 -56 134 -216 466 -233 481 -3 3 -32 46 -64 95 -189 288 -410 496
-623 585 -75 31 -200 60 -262 60 -46 0 -173 -28 -181 -39 -6 -10 -90 -53 -90
-46 0 2 17 13 38 24 20 11 33 20 29 21 -4 0 -27 -10 -50 -21 -203 -103 -348
-312 -421 -605 -39 -156 -48 -243 -51 -484 -3 -180 0 -248 15 -340 18 -114 25
-145 74 -335 27 -105 32 -155 16 -155 -5 0 -92 30 -192 66 -221 79 -704 251
-923 329 -88 31 -259 92 -380 135 -1404 500 -1599 569 -1832 649 -49 17 -178
63 -288 103 -178 65 -202 77 -221 106 -28 41 -88 220 -154 462 -98 354 -199
629 -318 864 -71 140 -187 304 -255 360 -90 74 -182 94 -263 57z m152 -243 c4
-7 3 -8 -4 -4 -7 4 -12 2 -12 -3 0 -14 23 -14 37 0 7 7 19 8 30 4 10 -5 25 -7
33 -7 8 1 25 -6 38 -16 19 -14 22 -24 16 -45 -9 -38 -28 -29 -28 14 -1 41 -24
46 -44 9 l-14 -25 6 30 c6 27 5 28 -8 12 -8 -11 -17 -14 -20 -8 -4 6 -13 8
-20 5 -8 -3 -17 0 -21 5 -3 6 -11 8 -17 5 -6 -4 -6 2 1 15 13 24 17 25 27 9z
m214 -128 c0 -5 -5 -10 -11 -10 -5 0 -7 5 -4 10 3 6 8 10 11 10 2 0 4 -4 4
-10z m-133 -66 c48 -28 119 -116 163 -205 121 -239 196 -677 171 -992 -37
-451 -186 -691 -370 -597 -84 42 -188 200 -245 370 -24 74 -24 77 -12 192 8
67 19 125 27 135 21 25 191 133 210 133 17 0 56 -37 47 -45 -3 -3 -11 1 -18
10 -22 26 -45 17 -136 -52 -104 -81 -113 -100 -116 -247 -2 -94 0 -106 32
-180 40 -95 79 -166 90 -166 17 0 80 84 85 114 2 17 12 103 21 191 9 88 20
167 25 175 7 11 8 6 5 -15 -9 -51 -36 -322 -36 -363 0 -29 -10 -52 -39 -93
-36 -50 -37 -55 -24 -76 17 -26 35 -29 52 -9 17 20 67 -1 98 -41 25 -33 47
-41 57 -24 3 5 -13 49 -37 98 l-42 88 -3 175 c-2 96 1 195 5 218 5 28 8 -32 8
-165 l0 -208 37 -70 c20 -38 43 -79 51 -90 15 -20 16 -20 47 10 17 16 45 58
61 91 l31 62 -16 133 c-15 120 -20 140 -57 208 -22 42 -56 111 -77 154 -20 42
-40 77 -43 77 -4 0 -10 -10 -12 -22 -4 -20 -4 -20 -5 -3 -2 21 14 53 21 45 2
-3 26 -48 54 -100 28 -52 65 -121 82 -152 26 -46 35 -81 48 -173 9 -63 20
-115 24 -115 11 0 22 84 16 127 -7 55 11 212 29 253 9 22 14 57 12 90 l-3 55
-28 -47 c-32 -55 -40 -61 -66 -53 -19 6 -135 134 -128 141 2 2 31 -23 65 -57
37 -37 65 -58 72 -54 8 5 2 14 -19 27 -17 11 -31 23 -31 26 0 4 29 46 65 94
l66 87 -15 98 c-28 184 -34 201 -76 229 -21 14 -48 24 -61 22 -26 -4 -44 -50
-81 -207 -12 -56 -27 -101 -31 -101 -5 0 -6 8 -4 18 3 9 22 82 43 160 20 79
44 152 53 163 16 18 17 18 59 -1 46 -21 47 -19 31 45 -7 28 -20 50 -36 60 -29
20 -90 141 -98 199 -6 36 -40 95 -49 85 -2 -2 5 -56 15 -119 11 -63 18 -133
15 -155 -9 -94 -48 -360 -53 -365 -6 -5 -4 18 23 255 17 149 17 151 -5 275
-12 68 -25 128 -28 133 -12 20 -94 48 -122 42 -28 -6 -29 -8 -46 -119 -20
-134 -17 -155 57 -385 60 -186 62 -194 43 -156 -8 17 -37 100 -65 185 -62 188
-74 273 -53 377 8 41 13 77 9 80 -12 12 -35 -20 -44 -62 -11 -54 -58 -135 -77
-135 -16 0 -29 -21 -39 -62 -6 -25 -3 -27 36 -35 42 -8 44 -10 76 -88 19 -44
61 -140 94 -214 68 -151 81 -188 67 -196 -5 -4 -9 1 -9 9 0 9 -3 16 -7 16 -5
0 -9 11 -9 24 -1 13 -34 94 -73 179 -39 86 -71 160 -71 165 0 21 -42 61 -71
67 -47 11 -58 -8 -74 -131 -23 -169 -20 -221 16 -311 43 -110 52 -117 124
-104 130 24 147 2 20 -24 -100 -21 -106 -19 -142 65 -13 30 -29 65 -35 77 -15
31 -4 285 17 388 36 173 87 294 154 362 65 68 125 76 208 27z m-207 -214 c-6
-11 -13 -20 -16 -20 -2 0 0 9 6 20 6 11 13 20 16 20 2 0 0 -9 -6 -20z m147 -6
c-3 -3 -12 -4 -19 -1 -8 3 -5 6 6 6 11 1 17 -2 13 -5z m-44 -11 c-7 -2 -21 -2
-30 0 -10 3 -4 5 12 5 17 0 24 -2 18 -5z m-187 -147 c-1 -7 -9 -21 -19 -30
-16 -16 -17 -16 -17 13 0 24 4 31 19 31 11 0 18 -6 17 -14z m309 -406 c3 -5
-3 -10 -14 -10 -12 0 -21 -4 -21 -9 0 -5 -3 -18 -6 -28 -6 -16 -5 -16 9 2 23
28 32 10 35 -69 2 -44 0 -66 -8 -66 -7 0 -9 8 -5 20 9 27 -4 82 -17 74 -6 -4
-6 -10 1 -17 8 -8 6 -16 -5 -29 -15 -16 -15 -19 0 -43 9 -14 23 -25 32 -25 9
0 12 -5 8 -12 -5 -7 -17 -1 -36 21 -26 29 -28 37 -25 100 3 79 30 126 52 91z
m-398 -47 c-3 -10 -5 -4 -5 12 0 17 2 24 5 18 2 -7 2 -21 0 -30z m434 -93 c-8
-20 -18 58 -11 90 3 18 6 11 11 -25 3 -27 3 -57 0 -65z m-413 -12 c20 -89 32
-180 31 -243 -1 -101 -12 -50 -54 268 -8 56 9 37 23 -25z m5800 -165 c23 -9
42 -19 42 -23 0 -10 -49 0 -56 11 -10 17 -58 9 -80 -12 l-23 -21 11 36 c12 40
19 40 106 9z m-222 -15 c-3 -33 -26 -53 -26 -23 0 17 17 55 25 55 3 0 3 -14 1
-32z m30 -5 c-8 -15 -15 -22 -16 -15 0 17 20 55 27 49 2 -3 -2 -18 -11 -34z
m54 25 c0 -9 3 -8 10 2 5 8 11 12 14 9 3 -2 -5 -20 -16 -38 -19 -29 -23 -31
-28 -15 -6 17 -7 17 -18 -1 -17 -30 -14 -8 3 25 16 31 35 40 35 18z m-110 -7
c0 -5 -7 -16 -15 -25 -9 -8 -15 -19 -15 -23 1 -4 -4 -9 -10 -11 -8 -3 -10 3
-5 17 9 30 -4 26 -15 -5 -6 -14 -14 -23 -19 -20 -5 4 -12 0 -15 -6 -3 -7 -4 0
0 16 5 26 3 28 -11 16 -8 -7 -13 -21 -10 -30 3 -11 -1 -20 -10 -24 -10 -3 -15
1 -16 12 0 12 -3 10 -10 -7 -14 -35 -21 -20 -8 18 6 18 14 30 17 26 3 -3 13 2
23 11 9 8 26 16 38 17 11 1 21 5 21 10 0 5 7 7 15 4 8 -4 17 -2 20 3 8 13 25
13 25 1z m-176 -99 c-4 -18 -10 -32 -15 -32 -4 0 -15 -7 -23 -16 -15 -14 -16
-14 -16 5 0 17 49 82 58 76 1 -1 -1 -16 -4 -33z m-80 -84 c-10 -16 -22 -7 -17
13 4 15 8 17 14 8 4 -7 5 -17 3 -21z m532 -97 c70 -35 106 -61 175 -130 465
-462 615 -1498 303 -2102 -117 -227 -310 -342 -503 -300 -191 41 -392 240
-531 526 -63 128 -133 310 -128 327 2 6 12 -17 23 -51 19 -65 41 -84 32 -27
-3 18 -2 38 2 42 5 5 14 44 21 88 19 125 23 133 99 170 124 62 323 138 346
132 26 -7 85 -59 85 -75 0 -6 -19 2 -42 19 -22 16 -49 30 -60 30 -25 0 -311
-127 -344 -153 -39 -30 -51 -68 -69 -224 l-17 -141 45 -96 c41 -87 125 -223
175 -285 22 -27 33 -24 119 40 81 60 76 43 128 429 14 101 28 186 30 189 12
12 11 -13 -6 -129 -10 -69 -26 -192 -35 -275 -9 -82 -22 -164 -29 -181 -7 -18
-43 -56 -79 -85 -36 -29 -66 -57 -66 -62 0 -11 70 -77 82 -77 5 0 22 7 39 15
27 15 34 14 97 -10 49 -19 78 -39 109 -72 40 -45 74 -58 111 -45 20 7 15 19
-48 116 -106 164 -102 146 -102 479 0 159 4 293 9 298 4 4 8 -114 8 -264 0
-193 4 -284 13 -315 13 -44 135 -233 170 -265 19 -18 21 -18 59 1 51 27 117
85 164 145 34 42 39 56 39 101 0 72 -27 283 -43 337 -11 36 -135 216 -240 349
-7 8 -30 43 -52 77 -22 35 -44 63 -48 63 -4 0 -15 -16 -23 -36 -8 -20 -17 -34
-20 -31 -9 9 28 87 41 87 7 0 43 -42 79 -92 36 -51 113 -154 171 -228 57 -74
110 -150 116 -168 6 -18 21 -99 32 -179 12 -81 27 -148 33 -150 6 -2 20 18 31
44 16 39 19 64 15 138 -5 119 32 294 78 360 27 39 30 51 30 119 0 42 -3 76 -7
76 -4 0 -41 -34 -84 -75 -58 -57 -81 -74 -95 -69 -53 19 -303 228 -289 242 3
3 16 -3 30 -14 208 -166 247 -188 285 -161 22 16 124 136 138 163 21 39 -30
388 -76 527 -17 51 -19 53 -102 94 -47 24 -97 43 -112 43 -40 0 -69 -42 -170
-246 -90 -181 -91 -185 -94 -264 -2 -83 -14 -126 -14 -52 0 22 -3 48 -7 58 -4
12 -3 15 5 10 8 -5 10 2 6 23 -8 39 15 97 121 310 90 181 132 238 163 221 16
-9 150 -60 158 -60 12 0 1 42 -25 95 -21 45 -38 65 -65 79 -25 14 -53 46 -95
111 -67 102 -73 116 -95 195 -15 55 -77 133 -93 117 -3 -4 6 -65 21 -137 38
-181 36 -218 -18 -396 -24 -82 -56 -193 -69 -247 -14 -54 -27 -101 -30 -103
-3 -3 -8 7 -11 22 -5 17 -2 32 7 43 8 9 20 43 27 76 7 33 30 125 52 205 37
132 40 152 35 230 -7 105 -48 270 -78 312 -20 28 -21 31 -5 25 15 -6 17 -5 8
6 -30 36 -178 87 -252 87 -40 0 -53 -23 -85 -145 -44 -170 -44 -200 5 -350 40
-122 102 -294 149 -412 11 -29 17 -53 13 -53 -4 0 -15 19 -24 43 -9 23 -48
124 -87 225 -39 101 -83 226 -98 278 -26 90 -26 98 -14 171 7 42 15 83 18 90
4 10 0 13 -13 11 -31 -5 -31 45 0 60 31 14 48 43 36 62 -8 12 -14 12 -42 -2
-28 -13 -37 -26 -52 -74 -14 -45 -32 -73 -78 -121 -33 -34 -63 -62 -67 -61
-46 5 -62 -4 -86 -52 -14 -28 -23 -55 -20 -59 3 -5 35 -14 72 -21 38 -6 78
-18 91 -26 13 -9 66 -102 132 -232 60 -119 132 -259 160 -310 34 -63 50 -105
50 -129 0 -47 -10 -36 -21 21 -5 25 -28 81 -52 123 -24 43 -61 109 -81 146
-21 38 -40 67 -42 64 -2 -2 12 -39 31 -81 l35 -78 -47 38 c-27 22 -112 90
-191 153 -78 63 -141 115 -139 117 1 2 66 -21 142 -50 77 -30 141 -53 143 -51
5 5 -79 168 -97 189 -27 31 -70 47 -140 53 -67 6 -68 5 -79 -23 -35 -85 -71
-281 -74 -401 -1 -57 3 -71 56 -177 35 -70 70 -126 89 -142 l32 -27 152 6
c130 5 153 4 153 -8 0 -9 -10 -15 -24 -15 -14 0 -82 -5 -152 -11 -69 -6 -137
-8 -150 -5 -13 4 -36 25 -51 49 -15 23 -40 62 -56 87 l-29 45 5 -48 c2 -27 1
-45 -3 -40 -4 4 -10 39 -12 76 -3 43 -9 71 -18 77 -19 12 -7 223 20 364 68
351 221 592 423 667 41 15 72 19 144 16 85 -3 98 -6 179 -46z m-62 -25 c43
-18 51 -41 9 -25 -16 6 -61 14 -102 18 -51 4 -76 11 -79 20 -4 12 8 13 65 8
39 -3 87 -12 107 -21z m-5339 -96 c36 -88 40 -105 11 -46 l-25 49 -4 -34 c-3
-26 -4 -21 -5 18 -1 28 -5 60 -9 70 -15 43 7 2 32 -57z m4923 -160 c-7 -11
-18 -18 -25 -16 -7 3 -15 0 -19 -6 -4 -7 -3 -8 4 -4 25 15 10 -4 -18 -24 l-30
-22 17 36 c12 26 23 36 39 36 13 0 26 5 29 10 3 6 8 10 11 10 2 0 -1 -9 -8
-20z m-4839 -45 c0 -5 -6 1 -14 15 -8 14 -14 30 -14 35 0 6 6 -1 14 -15 8 -14
14 -29 14 -35z m-213 -91 c25 -19 41 -34 36 -34 -19 0 -89 59 -121 101 l-33
44 37 -38 c20 -21 57 -54 81 -73z m5546 -410 c-4 -54 -4 -55 -23 -38 -11 10
-33 17 -49 17 -16 0 -27 4 -25 8 4 5 95 69 99 69 1 0 -1 -25 -2 -56z m-247
-140 c9 -15 12 -24 7 -20 -7 4 -10 -10 -9 -38 2 -34 5 -42 17 -38 9 3 5 -7
-10 -24 -14 -16 -26 -31 -27 -33 -2 -2 -3 37 -3 87 0 51 2 92 4 92 2 0 11 -12
21 -26z m299 -30 c3 -8 2 -12 -4 -9 -6 3 -10 10 -10 16 0 14 7 11 14 -7z
m-847 -76 c-2 -13 -4 -3 -4 22 0 25 2 35 4 23 2 -13 2 -33 0 -45z m736 -15
c-7 -2 -19 -2 -25 0 -7 3 -2 5 12 5 14 0 19 -2 13 -5z m51 -29 c7 -19 2 -18
-19 6 -16 17 -16 20 -3 15 9 -4 19 -13 22 -21z m-77 -6 c-12 -13 -24 -19 -26
-14 -2 5 4 15 15 23 28 21 35 15 11 -9z m54 -5 c13 -16 12 -17 -3 -4 -17 13
-22 21 -14 21 2 0 10 -8 17 -17z m-25 -19 c-3 -8 -2 -13 3 -10 13 8 34 -83 22
-97 -5 -7 -11 -25 -13 -41 -5 -46 -21 -41 -51 18 l-28 54 23 46 c12 25 28 46
36 46 9 0 12 -6 8 -16z m-657 -255 c16 -101 20 -154 15 -200 l-7 -64 -18 75
c-32 132 -56 275 -64 385 l-5 70 28 -65 c18 -41 37 -116 51 -201z m569 239 c5
-7 13 -45 17 -84 5 -56 12 -77 31 -98 27 -28 61 -34 84 -13 12 10 12 9 1 -5
-18 -24 -64 -23 -87 3 -10 12 -31 27 -46 35 -16 9 -25 20 -23 31 2 10 4 20 4
23 1 3 5 0 9 -7 5 -7 8 4 9 27 1 23 -4 43 -13 50 -15 13 -19 50 -5 50 5 0 13
-6 19 -12z m-664 -160 c4 -40 3 -54 -2 -38 -13 36 -23 151 -12 123 5 -12 11
-50 14 -85z m970 67 c6 -17 -2 -45 -14 -45 -12 0 -20 28 -14 45 4 8 10 15 14
15 4 0 10 -7 14 -15z m-375 -172 c-17 -37 -32 -69 -33 -71 -6 -5 -156 31 -156
38 0 5 170 83 217 99 1 1 -11 -29 -28 -66z m-582 -5 c-3 -7 -5 -2 -5 12 0 14
2 19 5 13 2 -7 2 -19 0 -25z m798 -59 c8 -23 1 -34 -14 -24 -13 8 -15 45 -2
45 5 0 13 -9 16 -21z m-657 -209 c0 -9 -3 -7 -8 5 -5 11 -8 29 -8 40 0 16 2
15 8 -5 4 -14 8 -32 8 -40z m789 -157 c-3 -10 -5 -4 -5 12 0 17 2 24 5 18 2
-7 2 -21 0 -30z m133 -443 c-6 -11 -13 -20 -16 -20 -2 0 0 9 6 20 6 11 13 20
16 20 2 0 0 -9 -6 -20z m-559 -37 c13 -16 12 -17 -3 -4 -17 13 -22 21 -14 21
2 0 10 -8 17 -17z m519 -58 c0 -5 -5 -3 -10 5 -5 8 -10 20 -10 25 0 6 5 3 10
-5 5 -8 10 -19 10 -25z m-147 -92 c-7 -2 -19 -2 -25 0 -7 3 -2 5 12 5 14 0 19
-2 13 -5z m-153 -70 c39 -15 51 -22 31 -19 -19 4 -57 17 -85 31 -54 27 -48 26
54 -12z m123 -30 c-7 -2 -19 -2 -25 0 -7 3 -2 5 12 5 14 0 19 -2 13 -5z"/>
<path d="M3411 4467 c0 -10 -10 -36 -21 -57 -11 -22 -18 -40 -15 -40 10 0 46
83 42 98 -4 15 -5 15 -6 -1z"/>
<path d="M8242 3900 c0 -14 2 -19 5 -12 2 6 2 18 0 25 -3 6 -5 1 -5 -13z"/>
<path d="M8510 2789 c-8 -15 -8 -24 0 -34 7 -8 9 -19 6 -24 -4 -5 -2 -12 4
-16 6 -4 10 13 10 44 0 56 -4 61 -20 30z"/>
<path d="M5546 5763 c-6 -14 -5 -15 5 -6 7 7 10 15 7 18 -3 3 -9 -2 -12 -12z"/>
<path d="M15926 5747 c3 -10 9 -15 12 -12 3 3 0 11 -7 18 -10 9 -11 8 -5 -6z"/>
<path d="M5410 5746 c0 -2 7 -6 15 -10 8 -3 15 -1 15 4 0 6 -7 10 -15 10 -8 0
-15 -2 -15 -4z"/>
<path d="M5468 5733 c7 -3 16 -2 19 1 4 3 -2 6 -13 5 -11 0 -14 -3 -6 -6z"/>
<path d="M15900 5726 c0 -2 8 -10 18 -17 15 -13 16 -12 3 4 -13 16 -21 21 -21
13z"/>
<path d="M15992 5592 c2 -4 28 -40 58 -80 49 -64 56 -70 64 -53 9 22 -10 84
-24 76 -4 -3 -10 2 -14 10 -6 17 -26 20 -26 5 0 -6 11 -15 25 -22 13 -6 22
-15 19 -19 -3 -5 1 -19 7 -31 11 -21 11 -22 -4 -9 -10 7 -17 22 -17 33 0 10
-4 17 -9 13 -5 -3 -24 15 -42 40 -29 40 -46 58 -37 37z"/>
<path d="M16060 5589 c0 -5 5 -7 10 -4 6 3 10 8 10 11 0 2 -4 4 -10 4 -5 0
-10 -5 -10 -11z"/>
<path d="M16235 5329 c-4 -6 0 -18 9 -27 15 -15 16 -15 16 5 0 25 -15 38 -25
22z"/>
<path d="M7450 5200 c-6 -65 -5 -78 6 -68 3 3 4 34 2 69 l-3 64 -5 -65z"/>
<path d="M7443 5060 c0 -36 2 -50 4 -32 2 17 2 47 0 65 -2 17 -4 3 -4 -33z"/>
<path d="M7431 4878 c0 -51 2 -88 4 -83 8 23 11 175 3 175 -4 0 -8 -42 -7 -92z"/>
<path d="M7420 4670 c-3 -52 -4 -97 -3 -99 10 -16 13 19 11 100 l-3 94 -5 -95z"/>
<path d="M7413 4465 c0 -44 2 -61 4 -37 2 23 2 59 0 80 -2 20 -4 1 -4 -43z"/>
<path d="M4269 4440 c-118 -8 -262 -25 -301 -36 -25 -7 -23 -26 11 -93 49 -97
100 -130 407 -266 489 -217 1132 -448 2153 -771 217 -69 464 -151 550 -183
131 -49 157 -62 162 -82 5 -16 7 -18 8 -7 1 15 8 17 45 12 59 -9 86 17 86 81
0 54 34 30 -385 273 -1000 579 -1377 775 -1775 922 -63 23 -119 44 -124 48 -6
3 -19 6 -30 7 -12 2 -75 16 -141 33 -209 54 -441 76 -666 62z m135 -130 c20
-14 52 -50 71 -80 67 -110 85 -120 523 -284 68 -26 72 -30 72 -58 0 -23 -3
-28 -12 -20 -7 6 -78 38 -158 72 -201 86 -346 161 -464 237 -56 36 -141 88
-191 115 l-90 49 106 -3 c93 -3 111 -6 143 -28z m1707 -751 c393 -132 705
-242 745 -264 38 -20 60 -33 49 -29 -11 4 -78 22 -150 41 -354 94 -1275 392
-1515 492 -128 53 -145 62 -148 85 l-3 25 173 -61 c95 -34 477 -163 849 -289z"/>
<path d="M7407 4363 c-4 -3 -6 -52 -5 -107 l2 -101 5 105 c7 116 7 113 -2 103z"/>
<path d="M7393 4035 c0 -44 2 -61 4 -37 2 23 2 59 0 80 -2 20 -4 1 -4 -43z"/>
<path d="M7393 3880 c0 -36 2 -50 4 -32 2 17 2 47 0 65 -2 17 -4 3 -4 -33z"/>
<path d="M16630 3797 c-14 -12 -44 -36 -67 -53 -24 -17 -40 -34 -36 -37 3 -4
7 -30 8 -59 2 -57 23 -138 36 -138 17 0 57 87 67 145 14 81 25 165 20 165 -2
0 -14 -10 -28 -23z"/>
<path d="M16420 3506 c0 -2 8 -10 18 -17 15 -13 16 -12 3 4 -13 16 -21 21 -21
13z"/>
<path d="M7384 3290 c0 -74 1 -105 3 -67 2 37 2 97 0 135 -2 37 -3 6 -3 -68z"/>
<path d="M11557 3159 c-282 -27 -405 -115 -628 -447 -86 -128 -99 -152 -81
-152 4 0 109 -11 233 -25 483 -52 691 -56 804 -14 74 27 160 110 389 379 183
213 194 229 178 239 -16 9 -530 32 -687 30 -66 -1 -160 -6 -208 -10z m834
-102 c-126 -152 -364 -423 -399 -455 -79 -71 -177 -102 -318 -102 -145 0 -777
59 -792 74 -9 10 33 7 283 -19 132 -14 324 -28 427 -32 l187 -6 54 27 c34 16
70 45 93 74 22 25 84 96 138 157 54 60 144 165 200 233 l100 122 44 0 43 0
-60 -73z m-762 -101 c-3 -3 -18 -7 -32 -8 -32 -3 -33 -8 -7 -31 26 -22 41 -22
34 1 -3 9 2 6 10 -8 33 -55 6 -107 -63 -120 -62 -11 -109 4 -117 38 -3 15 -10
37 -15 50 -12 30 -3 45 25 39 11 -3 30 -1 41 3 18 8 18 9 -4 9 -28 1 -18 17
14 23 37 6 120 9 114 4z m-136 -203 c-7 -2 -13 -11 -13 -19 0 -8 -7 -14 -15
-14 -8 0 -15 2 -15 4 0 10 32 36 43 35 9 0 8 -2 0 -6z m52 -53 c8 -13 -35 -13
-55 0 -11 7 -7 10 17 10 17 0 35 -4 38 -10z m275 -145 c-14 -8 -32 -14 -40
-14 -8 0 -1 6 15 14 40 18 57 18 25 0z m-72 -22 c-10 -2 -26 -2 -35 0 -10 3
-2 5 17 5 19 0 27 -2 18 -5z"/>
<path d="M16621 2991 c-1 -27 2 -32 11 -23 8 8 8 17 0 34 -10 22 -11 21 -11
-11z"/>
<path d="M15217 2590 c-33 -26 -50 -79 -51 -155 -2 -103 40 -138 115 -99 41
21 61 73 62 161 1 57 -2 76 -17 92 -25 27 -75 27 -109 1z m94 -37 c14 -36 5
-137 -15 -167 -18 -28 -62 -42 -82 -25 -35 29 -28 156 11 195 33 33 73 32 86
-3z"/>
<path d="M15109 2578 c0 -1 -3 -65 -6 -140 -3 -92 -1 -138 5 -138 19 0 21 14
23 145 1 87 -2 130 -10 133 -6 2 -11 2 -12 0z"/>
<path d="M14958 2543 c-2 -4 -6 -68 -7 -142 l-3 -134 47 8 c62 9 75 14 75 31
0 16 -2 16 -53 5 l-38 -9 2 121 c1 75 -3 123 -9 125 -6 2 -12 -1 -14 -5z"/>
<path d="M14811 2504 c-38 -31 -55 -89 -49 -166 6 -88 50 -119 123 -86 29 13
36 44 8 33 -49 -18 -70 -17 -87 6 -20 29 -21 108 -2 154 16 39 42 55 85 55 21
0 31 5 31 15 0 26 -73 19 -109 -11z"/>
</g>
</svg>
